<svg xmlns="http://www.w3.org/2000/svg" xmlns:xlink="http://www.w3.org/1999/xlink" viewBox="0 0 595.28 595.28"><defs><style>.cls-1{fill:url(#linear-gradient);}.cls-2{fill:url(#linear-gradient-2);}.cls-3{fill:url(#linear-gradient-3);}.cls-4{fill:url(#linear-gradient-4);}.cls-5{fill:none;clip-rule:evenodd;}.cls-6{isolation:isolate;}.cls-7{fill:#ff7c2e;}.cls-8{fill:#ae4386;}.cls-9{fill:url(#linear-gradient-5);}.cls-10{fill:url(#linear-gradient-6);}.cls-11{fill:url(#linear-gradient-7);}.cls-12{fill:url(#linear-gradient-8);}.cls-13{fill:url(#linear-gradient-9);}.cls-14{fill:#f8e7fd;mix-blend-mode:multiply;}.cls-15{fill:url(#linear-gradient-10);}.cls-16{fill:url(#linear-gradient-11);}.cls-17{fill:url(#linear-gradient-12);}.cls-18{fill:url(#linear-gradient-13);}.cls-19{fill:url(#linear-gradient-14);}.cls-20{fill:url(#linear-gradient-15);}.cls-21{fill:url(#linear-gradient-16);}.cls-22{fill:url(#linear-gradient-17);}.cls-23{fill:url(#linear-gradient-18);}.cls-24{fill:url(#linear-gradient-19);}.cls-25{mix-blend-mode:overlay;}.cls-26{fill:#f7bb00;}.cls-27{fill:url(#linear-gradient-20);}.cls-28{fill:url(#linear-gradient-21);}.cls-29{fill:url(#linear-gradient-22);}.cls-30{fill:url(#linear-gradient-23);}.cls-31{fill:url(#linear-gradient-24);}.cls-32{fill:url(#linear-gradient-25);}.cls-33{fill:url(#linear-gradient-26);}.cls-34{clip-path:url(#clip-path);}.cls-35{fill:url(#linear-gradient-27);}.cls-36{clip-path:url(#clip-path-2);}.cls-37{fill:url(#linear-gradient-28);}.cls-38{mask:url(#mask);}.cls-39{fill:#b70071;}.cls-39,.cls-42{fill-rule:evenodd;}.cls-40{mask:url(#mask-2);}.cls-41{mask:url(#mask-3);}.cls-42{fill:#4c5a69;}.cls-43{mask:url(#mask-4);}.cls-44{fill:#1f0066;}</style><linearGradient id="linear-gradient" x1="-595.11" y1="314.98" x2="-636.42" y2="364.16" gradientTransform="translate(906.79 -89.69)" gradientUnits="userSpaceOnUse"><stop offset="0" stop-color="#fff"/><stop offset="1"/></linearGradient><linearGradient id="linear-gradient-2" x1="-598.37" y1="318.63" x2="-639.66" y2="367.83" gradientTransform="translate(908.22 -94.86)" xlink:href="#linear-gradient"/><linearGradient id="linear-gradient-3" x1="-597.78" y1="358.47" x2="-651.15" y2="359.66" gradientTransform="translate(895.7 -85.52)" xlink:href="#linear-gradient"/><linearGradient id="linear-gradient-4" x1="-648.87" y1="407.9" x2="-606.76" y2="319.96" gradientTransform="translate(912.39 -86.26)" xlink:href="#linear-gradient"/><linearGradient id="linear-gradient-5" x1="162.59" y1="250.47" x2="267.06" y2="250.47" gradientUnits="userSpaceOnUse"><stop offset="0" stop-color="#fa6791"/><stop offset="0.04" stop-color="#ec5f92"/><stop offset="0.15" stop-color="#c34897"/><stop offset="0.26" stop-color="#a5389a"/><stop offset="0.35" stop-color="#932e9b"/><stop offset="0.41" stop-color="#8d2a9c"/><stop offset="0.77" stop-color="#ae559c"/><stop offset="1" stop-color="#c16d9c"/></linearGradient><linearGradient id="linear-gradient-6" x1="170.61" y1="239.32" x2="366.81" y2="239.32" gradientUnits="userSpaceOnUse"><stop offset="0" stop-color="#ff8b26"/><stop offset="0.52" stop-color="#f6c"/><stop offset="0.57" stop-color="#ee60c7"/><stop offset="0.68" stop-color="#c251b9"/><stop offset="0.82" stop-color="#7b38a2"/><stop offset="1" stop-color="#1b1784"/><stop offset="1" stop-color="#191683"/></linearGradient><linearGradient id="linear-gradient-7" x1="320.8" y1="290.37" x2="166.32" y2="149.98" gradientUnits="userSpaceOnUse"><stop offset="0" stop-color="#ead6ff"/><stop offset="0.38" stop-color="#f3e7ff"/><stop offset="1" stop-color="#fff"/></linearGradient><linearGradient id="linear-gradient-8" x1="223.31" y1="122.33" x2="218.61" y2="118.05" xlink:href="#linear-gradient-7"/><linearGradient id="linear-gradient-9" x1="269.27" y1="7.49" x2="254.39" y2="-6.03" gradientTransform="matrix(0.98, -0.19, 0.19, 0.98, -15.17, 162.37)" xlink:href="#linear-gradient-7"/><linearGradient id="linear-gradient-10" x1="318.66" y1="147.79" x2="394.65" y2="147.79" gradientUnits="userSpaceOnUse"><stop offset="0" stop-color="#ff7036"/><stop offset="1" stop-color="#ffba31"/></linearGradient><linearGradient id="linear-gradient-11" x1="261.22" y1="153.93" x2="413.54" y2="153.93" gradientUnits="userSpaceOnUse"><stop offset="0" stop-color="#ff6486"/><stop offset="1" stop-color="#89244b"/></linearGradient><linearGradient id="linear-gradient-12" x1="280.63" y1="287.34" x2="393.84" y2="179.35" gradientUnits="userSpaceOnUse"><stop offset="0" stop-color="#e27900"/><stop offset="0.4" stop-color="#f19721"/><stop offset="0.77" stop-color="#fbab38"/><stop offset="1" stop-color="#ffb340"/></linearGradient><linearGradient id="linear-gradient-13" x1="367" y1="201.66" x2="437.02" y2="275.39" gradientUnits="userSpaceOnUse"><stop offset="0" stop-color="#ff6126"/><stop offset="1" stop-color="#d64552"/></linearGradient><linearGradient id="linear-gradient-14" x1="276.01" y1="177.19" x2="292.54" y2="177.19" gradientTransform="translate(413.77 -131.74) rotate(80.81)" xlink:href="#linear-gradient-13"/><linearGradient id="linear-gradient-15" x1="354.2" y1="185.45" x2="370.72" y2="185.45" xlink:href="#linear-gradient-13"/><linearGradient id="linear-gradient-16" x1="280.11" y1="150.62" x2="366.55" y2="150.62" gradientUnits="userSpaceOnUse"><stop offset="0" stop-color="#ffcb36"/><stop offset="1" stop-color="#ffba31"/></linearGradient><linearGradient id="linear-gradient-17" x1="203.75" y1="154.91" x2="226.73" y2="187.73" gradientTransform="translate(-34.14 73.35) rotate(-17.2)" xlink:href="#linear-gradient-5"/><linearGradient id="linear-gradient-18" x1="216.35" y1="163.54" x2="195.83" y2="189.04" gradientTransform="translate(-34.14 73.35) rotate(-17.2)" xlink:href="#linear-gradient-5"/><linearGradient id="linear-gradient-19" x1="195.23" y1="193.56" x2="232.71" y2="158.01" gradientTransform="translate(-34.14 73.35) rotate(-17.2)" gradientUnits="userSpaceOnUse"><stop offset="0" stop-color="#f7bb00"/><stop offset="1" stop-color="#f70000"/></linearGradient><linearGradient id="linear-gradient-20" x1="197.28" y1="164.05" x2="214.66" y2="153.34" gradientTransform="translate(-34.14 73.35) rotate(-17.2)" xlink:href="#linear-gradient-5"/><linearGradient id="linear-gradient-21" x1="254.72" y1="143.55" x2="225.65" y2="155.5" xlink:href="#linear-gradient-19"/><linearGradient id="linear-gradient-22" x1="240.5" y1="150.72" x2="231.01" y2="144.87" xlink:href="#linear-gradient-19"/><linearGradient id="linear-gradient-23" x1="240.39" y1="151.06" x2="238.14" y2="158.86" xlink:href="#linear-gradient-19"/><linearGradient id="linear-gradient-24" x1="228.19" y1="150.18" x2="231.11" y2="151.5" xlink:href="#linear-gradient-19"/><linearGradient id="linear-gradient-25" x1="230.14" y1="157.26" x2="233.59" y2="153.92" xlink:href="#linear-gradient-19"/><linearGradient id="linear-gradient-26" x1="250.36" y1="148.64" x2="244.09" y2="150.47" xlink:href="#linear-gradient-19"/><clipPath id="clip-path"><path class="cls-5" d="M242.47,281.86,254,293.77a2.89,2.89,0,0,0,4.49.12l8.43-8.74,6.53,10.71s3.53,5.63,7-.6l16.81-52a3.75,3.75,0,0,0-3.8-4.31l-54,18s-2.22,2.82-.18,5.57L251,269.32l-8.62,8.56s-1,2.64.06,4"/></clipPath><linearGradient id="linear-gradient-27" x1="242.13" y1="305.49" x2="292.27" y2="235.77" gradientUnits="userSpaceOnUse"><stop offset="0" stop-color="#4c5a69"/><stop offset="1" stop-color="#fdfdfd"/></linearGradient><clipPath id="clip-path-2"><path class="cls-5" d="M250.63,279.9l5.63,5.84,8.77-9.08a4,4,0,0,1,5.22.11l5.57,9.16L288,248.39l-37.24,12.4,9.4,5.44a4.69,4.69,0,0,1,.18,4.07Z"/></clipPath><linearGradient id="linear-gradient-28" x1="290.46" y1="243.26" x2="240.57" y2="299.62" gradientUnits="userSpaceOnUse"><stop offset="0" stop-color="#ff057e"/><stop offset="0.15" stop-color="#ff236b"/><stop offset="0.74" stop-color="#ff9b1e"/><stop offset="1" stop-color="#ffcb00"/></linearGradient><mask id="mask" x="271.83" y="248.39" width="16.14" height="29.47" maskUnits="userSpaceOnUse"><rect class="cls-1" x="271.83" y="248.39" width="16.14" height="29.47"/></mask><mask id="mask-2" x="274.85" y="248.39" width="13.11" height="18.53" maskUnits="userSpaceOnUse"><rect class="cls-2" x="274.85" y="248.39" width="13.11" height="18.53"/></mask><mask id="mask-3" x="248.32" y="260.79" width="27.51" height="25.91" maskUnits="userSpaceOnUse"><rect class="cls-3" x="248.32" y="260.79" width="27.51" height="25.91"/></mask><mask id="mask-4" x="283.68" y="241.85" width="15.36" height="43.3" maskUnits="userSpaceOnUse"><rect class="cls-4" x="283.68" y="241.85" width="15.36" height="43.3"/></mask></defs><g class="cls-6"><g id="Layer_1" data-name="Layer 1"><path class="cls-7" d="M199.44,490.23,198.2,487H187.63l-1.24,3.34a11.24,11.24,0,0,1-1.24,2.63,2,2,0,0,1-1.68.68,2.5,2.5,0,0,1-1.76-.72,2.24,2.24,0,0,1-.76-1.65,3.57,3.57,0,0,1,.18-1.1c.12-.38.31-.91.58-1.58l6.65-16.88c.19-.48.42-1.07.68-1.75a8.54,8.54,0,0,1,.86-1.69,3.44,3.44,0,0,1,1.18-1.09,3.63,3.63,0,0,1,1.82-.42,3.68,3.68,0,0,1,1.84.42,3.59,3.59,0,0,1,1.18,1.07,7.41,7.41,0,0,1,.77,1.41c.2.5.47,1.17.79,2l6.79,16.78a8.35,8.35,0,0,1,.79,2.78,2.31,2.31,0,0,1-.75,1.66,2.48,2.48,0,0,1-1.82.75,2.31,2.31,0,0,1-1.06-.22,2.21,2.21,0,0,1-.75-.6,5.93,5.93,0,0,1-.64-1.17C199.81,491.1,199.61,490.64,199.44,490.23ZM189,483h7.76l-3.91-10.73Z"/><path class="cls-7" d="M208.59,490.68v-21a3.26,3.26,0,0,1,.65-2.2,2.18,2.18,0,0,1,1.75-.75,2.29,2.29,0,0,1,1.77.74,3.18,3.18,0,0,1,.67,2.21v21a3.18,3.18,0,0,1-.68,2.21,2.29,2.29,0,0,1-1.76.73,2.18,2.18,0,0,1-1.73-.76A3.2,3.2,0,0,1,208.59,490.68Z"/><path class="cls-7" d="M224.8,485.87h-5.61a2.81,2.81,0,0,1-1.94-.59,2,2,0,0,1-.66-1.53,2,2,0,0,1,.64-1.56,2.87,2.87,0,0,1,2-.59h5.61a2.87,2.87,0,0,1,2,.59,2,2,0,0,1,.64,1.56,2,2,0,0,1-.64,1.53A2.77,2.77,0,0,1,224.8,485.87Z"/><path class="cls-7" d="M239.64,489.26l-4.17-16.56v17.94a3.29,3.29,0,0,1-.66,2.24,2.29,2.29,0,0,1-1.77.74,2.25,2.25,0,0,1-1.74-.73,3.24,3.24,0,0,1-.67-2.25V470.08a2.56,2.56,0,0,1,.89-2.3,4.19,4.19,0,0,1,2.39-.59h1.63a6.24,6.24,0,0,1,2.14.26,1.81,1.81,0,0,1,1,1,14.82,14.82,0,0,1,.73,2.25l3.77,14.24,3.78-14.24a14.82,14.82,0,0,1,.73-2.25,1.81,1.81,0,0,1,1-1,6.24,6.24,0,0,1,2.14-.26h1.63a4.21,4.21,0,0,1,2.39.59,2.59,2.59,0,0,1,.89,2.3v20.56a3.24,3.24,0,0,1-.67,2.24,2.27,2.27,0,0,1-1.78.74,2.25,2.25,0,0,1-1.72-.74,3.24,3.24,0,0,1-.67-2.24V472.7l-4.17,16.56c-.27,1.08-.49,1.86-.66,2.37a3.25,3.25,0,0,1-.95,1.37,2.79,2.79,0,0,1-1.92.62,2.87,2.87,0,0,1-1.56-.4,2.84,2.84,0,0,1-1-1,6.24,6.24,0,0,1-.56-1.37Z"/><path class="cls-7" d="M273.34,490.89v-.62a10.62,10.62,0,0,1-1.83,1.84,6.48,6.48,0,0,1-2.09,1.11,8.52,8.52,0,0,1-2.59.37,6.7,6.7,0,0,1-3.14-.73,5.36,5.36,0,0,1-2.16-2,8.93,8.93,0,0,1-.9-4.44v-9.59a3.16,3.16,0,0,1,.65-2.17,2.25,2.25,0,0,1,1.74-.72,2.27,2.27,0,0,1,1.77.73,3.06,3.06,0,0,1,.68,2.16v7.75a12,12,0,0,0,.28,2.83,3.41,3.41,0,0,0,1,1.79,2.93,2.93,0,0,0,2,.65,4.09,4.09,0,0,0,2.3-.73,4.29,4.29,0,0,0,1.58-1.9,15.27,15.27,0,0,0,.41-4.5v-5.89a3.06,3.06,0,0,1,.67-2.16,2.28,2.28,0,0,1,1.76-.73,2.21,2.21,0,0,1,1.73.72,3.11,3.11,0,0,1,.66,2.17v14a3,3,0,0,1-.63,2.07,2.24,2.24,0,0,1-3.26,0A2.91,2.91,0,0,1,273.34,490.89Z"/><path class="cls-7" d="M283,474.37h.53v-2.91c0-.78,0-1.39.06-1.84a2.68,2.68,0,0,1,.35-1.14,2.25,2.25,0,0,1,.81-.81,2.4,2.4,0,0,1,1.19-.31,2.37,2.37,0,0,1,1.67.7,2,2,0,0,1,.63,1.12,10.12,10.12,0,0,1,.13,1.89v3.3h1.77a2.29,2.29,0,0,1,1.57.48,1.63,1.63,0,0,1,.54,1.25,1.4,1.4,0,0,1-.77,1.37,5,5,0,0,1-2.21.39h-.9v8.9a15.19,15.19,0,0,0,.08,1.75,1.7,1.7,0,0,0,.43,1,1.46,1.46,0,0,0,1.12.38,6,6,0,0,0,1.15-.15,6.13,6.13,0,0,1,1.14-.15,1.46,1.46,0,0,1,1.05.47,1.55,1.55,0,0,1,.47,1.16,1.93,1.93,0,0,1-1.27,1.79,8.7,8.7,0,0,1-3.67.62,6.31,6.31,0,0,1-3.44-.76,3.58,3.58,0,0,1-1.54-2.11,14.47,14.47,0,0,1-.36-3.6v-9.29h-.64a2.28,2.28,0,0,1-1.59-.5,1.61,1.61,0,0,1-.55-1.26,1.59,1.59,0,0,1,.57-1.25A2.57,2.57,0,0,1,283,474.37Z"/><path class="cls-7" d="M307.79,490.89a15.07,15.07,0,0,1-3.4,2.05,9.58,9.58,0,0,1-3.68.68,7,7,0,0,1-3.27-.73,5.39,5.39,0,0,1-2.17-2,5.16,5.16,0,0,1-.76-2.73,4.91,4.91,0,0,1,1.26-3.39,6.25,6.25,0,0,1,3.46-1.87q.45-.12,2.28-.48c1.22-.25,2.26-.48,3.13-.69s1.81-.45,2.83-.75a5.1,5.1,0,0,0-.77-2.81c-.46-.6-1.4-.9-2.83-.9a5.89,5.89,0,0,0-2.77.52,4.51,4.51,0,0,0-1.6,1.54,16.08,16.08,0,0,1-.94,1.36,1.54,1.54,0,0,1-1.18.33,2.08,2.08,0,0,1-1.41-.53,1.71,1.71,0,0,1-.59-1.34,4.12,4.12,0,0,1,.9-2.48,6.58,6.58,0,0,1,2.82-2,12.73,12.73,0,0,1,4.77-.78,13.57,13.57,0,0,1,5,.75,4.66,4.66,0,0,1,2.58,2.38,10.49,10.49,0,0,1,.75,4.33c0,1.13,0,2.1,0,2.89s0,1.67,0,2.64a9.82,9.82,0,0,0,.45,2.85,9,9,0,0,1,.45,1.9,1.78,1.78,0,0,1-.7,1.36,2.35,2.35,0,0,1-1.59.61,2.15,2.15,0,0,1-1.47-.7A10.42,10.42,0,0,1,307.79,490.89Zm-.32-7a24.69,24.69,0,0,1-3.09.82c-1.36.29-2.29.5-2.81.64a3.82,3.82,0,0,0-1.49.8,2,2,0,0,0-.71,1.66,2.48,2.48,0,0,0,.83,1.87,3.1,3.1,0,0,0,2.18.77,5.66,5.66,0,0,0,2.65-.63,4.16,4.16,0,0,0,1.78-1.62,7.4,7.4,0,0,0,.66-3.62Z"/><path class="cls-7" d="M319.24,477l3.16,10.81,2.87-10c.31-1.05.54-1.77.68-2.16a2.87,2.87,0,0,1,.84-1.1,2.53,2.53,0,0,1,1.67-.52,2.6,2.6,0,0,1,1.7.52,3.13,3.13,0,0,1,.86,1.14c.16.41.39,1.11.69,2.12l2.87,10L337.77,477c.21-.78.39-1.35.52-1.7a2.22,2.22,0,0,1,.65-.92,2,2,0,0,1,1.33-.4,2.14,2.14,0,0,1,1.51.6,1.93,1.93,0,0,1,.64,1.42,7.52,7.52,0,0,1-.55,2.25l-4,11.6c-.34,1-.61,1.69-.79,2.13a3.29,3.29,0,0,1-.9,1.17,2.55,2.55,0,0,1-1.68.51,2.5,2.5,0,0,1-1.72-.55,3.33,3.33,0,0,1-.94-1.35c-.2-.53-.42-1.22-.65-2.07l-2.77-9.43-2.67,9.43a11.58,11.58,0,0,1-1.16,3,2.35,2.35,0,0,1-2.18,1,2.7,2.7,0,0,1-1.35-.31,2.48,2.48,0,0,1-.93-.89,6.38,6.38,0,0,1-.66-1.36c-.19-.53-.34-.94-.44-1.25l-3.92-11.6a8.15,8.15,0,0,1-.59-2.25,2,2,0,0,1,.62-1.4,2.11,2.11,0,0,1,1.53-.62,1.78,1.78,0,0,1,1.63.68A10.56,10.56,0,0,1,319.24,477Z"/><path class="cls-7" d="M357.5,490.89a15.24,15.24,0,0,1-3.39,2.05,9.58,9.58,0,0,1-3.68.68,7,7,0,0,1-3.27-.73,5.39,5.39,0,0,1-2.17-2,5.17,5.17,0,0,1-.77-2.73,4.91,4.91,0,0,1,1.26-3.39,6.25,6.25,0,0,1,3.46-1.87c.31-.08,1.07-.24,2.29-.48s2.26-.48,3.13-.69,1.81-.45,2.82-.75a4.93,4.93,0,0,0-.77-2.81q-.68-.9-2.82-.9a5.94,5.94,0,0,0-2.78.52,4.59,4.59,0,0,0-1.6,1.54c-.44.69-.75,1.14-.93,1.36a1.55,1.55,0,0,1-1.18.33,2,2,0,0,1-1.41-.53,1.69,1.69,0,0,1-.6-1.34,4.07,4.07,0,0,1,.91-2.48,6.45,6.45,0,0,1,2.82-2,12.66,12.66,0,0,1,4.77-.78,13.51,13.51,0,0,1,5,.75,4.66,4.66,0,0,1,2.58,2.38,10.31,10.31,0,0,1,.76,4.33c0,1.13,0,2.1,0,2.89s0,1.67,0,2.64a9.82,9.82,0,0,0,.45,2.85,9.24,9.24,0,0,1,.46,1.9,1.79,1.79,0,0,1-.71,1.36,2.31,2.31,0,0,1-1.58.61,2.11,2.11,0,0,1-1.47-.7A10.41,10.41,0,0,1,357.5,490.89Zm-.32-7a24.21,24.21,0,0,1-3.09.82c-1.35.29-2.29.5-2.81.64a3.82,3.82,0,0,0-1.49.8,2,2,0,0,0-.71,1.66,2.46,2.46,0,0,0,.84,1.87,3.09,3.09,0,0,0,2.18.77,5.69,5.69,0,0,0,2.65-.63,4.21,4.21,0,0,0,1.78-1.62,7.42,7.42,0,0,0,.65-3.62Z"/><path class="cls-7" d="M382.43,487.29a5.92,5.92,0,0,1-1,3.43,6,6,0,0,1-2.88,2.17,13,13,0,0,1-4.64.73,11.16,11.16,0,0,1-4.47-.8,6.48,6.48,0,0,1-2.75-2,4,4,0,0,1-.88-2.4,1.9,1.9,0,0,1,.56-1.37,2,2,0,0,1,1.44-.57,1.66,1.66,0,0,1,1.17.38,4,4,0,0,1,.78,1,5.35,5.35,0,0,0,1.78,1.94,5.45,5.45,0,0,0,2.83.63,4.11,4.11,0,0,0,2.39-.64,1.84,1.84,0,0,0,.93-1.48,2,2,0,0,0-1-1.87,11.85,11.85,0,0,0-3.18-1.11,26.13,26.13,0,0,1-4.07-1.31,6.59,6.59,0,0,1-2.51-1.8,4.09,4.09,0,0,1-.94-2.74,4.84,4.84,0,0,1,.87-2.75,6,6,0,0,1,2.56-2.07,9.88,9.88,0,0,1,4.09-.77,13.33,13.33,0,0,1,3.37.39,8.25,8.25,0,0,1,2.5,1.05,5.1,5.1,0,0,1,1.53,1.45,2.82,2.82,0,0,1,.52,1.56,1.79,1.79,0,0,1-.56,1.37,2.22,2.22,0,0,1-1.58.53,1.92,1.92,0,0,1-1.27-.43,8.41,8.41,0,0,1-1.2-1.27,4.37,4.37,0,0,0-1.29-1.14,4.13,4.13,0,0,0-2-.42,4,4,0,0,0-2.18.55,1.64,1.64,0,0,0-.87,1.4,1.51,1.51,0,0,0,.64,1.25,5.2,5.2,0,0,0,1.72.8q1.08.33,3,.78a15.81,15.81,0,0,1,3.68,1.32,6,6,0,0,1,2.17,1.8A4,4,0,0,1,382.43,487.29Z"/><path class="cls-7" d="M389,471.69a2.54,2.54,0,0,1-1.72-.62,2.41,2.41,0,0,1,0-3.45A2.5,2.5,0,0,1,389,467a2.54,2.54,0,0,1,1.67.6,2.13,2.13,0,0,1,.73,1.75,2.22,2.22,0,0,1-.71,1.75A2.44,2.44,0,0,1,389,471.69Zm2.4,5v14a3.14,3.14,0,0,1-.69,2.2,2.32,2.32,0,0,1-1.76.74,2.19,2.19,0,0,1-1.73-.76,3.25,3.25,0,0,1-.66-2.18V476.83a3.1,3.1,0,0,1,.66-2.16,2.23,2.23,0,0,1,1.73-.73,2.31,2.31,0,0,1,1.76.73A2.81,2.81,0,0,1,391.37,476.69Z"/><path class="cls-7" d="M396.63,474.37h.54v-2.91c0-.78,0-1.39.06-1.84a2.68,2.68,0,0,1,.34-1.14,2.27,2.27,0,0,1,.82-.81,2.37,2.37,0,0,1,1.19-.31,2.34,2.34,0,0,1,1.66.7,2,2,0,0,1,.63,1.12,10,10,0,0,1,.14,1.89v3.3h1.77a2.3,2.3,0,0,1,1.57.48,1.63,1.63,0,0,1,.54,1.25,1.41,1.41,0,0,1-.77,1.37,5,5,0,0,1-2.21.39H402v8.9a13.19,13.19,0,0,0,.08,1.75,1.76,1.76,0,0,0,.42,1,1.48,1.48,0,0,0,1.13.38,6.11,6.11,0,0,0,1.15-.15,5.94,5.94,0,0,1,1.13-.15,1.48,1.48,0,0,1,1.06.47,1.58,1.58,0,0,1,.47,1.16,1.94,1.94,0,0,1-1.28,1.79,8.67,8.67,0,0,1-3.67.62,6.33,6.33,0,0,1-3.44-.76,3.52,3.52,0,0,1-1.53-2.11,14.47,14.47,0,0,1-.36-3.6v-9.29h-.64a2.32,2.32,0,0,1-1.6-.5,1.64,1.64,0,0,1-.55-1.26,1.57,1.57,0,0,1,.58-1.25A2.54,2.54,0,0,1,396.63,474.37Z"/><path class="cls-8" d="M179.23,443.44l2.38-6.8H186l.06-28,7.48-2.26v17.32a25.59,25.59,0,0,1,4.77-4.14,16.67,16.67,0,0,1,9.07-2.78,15.29,15.29,0,0,1,7.77,2,14.85,14.85,0,0,1,5.47,5.49,20.61,20.61,0,0,1,2.55,10.47v1.9h5.67v6.8Zm14.4-6.8h22a36.08,36.08,0,0,0-.57-5.22c-1.12-5.14-3.72-7.71-7.83-7.71q-5.39,0-9.58,4.76a16.66,16.66,0,0,0-3.14,5A14.13,14.13,0,0,0,193.63,436.64Z"/><path class="cls-8" d="M227.39,443.44v-6.8h6.46V422.72l7.49-2.44v16.36h8.47V420.45L257.3,418v18.63h4.42c2.84,0,4.24-1.41,4.22-4.23v-14l7.57-2.43-.08,16.83a10,10,0,0,1-2.84,7.43c-2.09,2.1-5,3.15-8.59,3.15Z"/><path class="cls-8" d="M280.29,429.86a15.76,15.76,0,0,1,2-8,11.23,11.23,0,0,1,4.28-4.34,12.54,12.54,0,0,1,6.38-1.64q7.26,0,10.4,5.35,2.16,3.78,2.16,10v5.45h6.32v6.8h-6.49a14.39,14.39,0,0,1-1.48,4.82,11.35,11.35,0,0,1-4.39,4.59,13.59,13.59,0,0,1-6.92,1.79,22.13,22.13,0,0,1-5.58-.8,17.89,17.89,0,0,1-2.89-1.1l-3.38-7.63a18.79,18.79,0,0,0,10.18,3,7.36,7.36,0,0,0,5.1-1.7,6.33,6.33,0,0,0,1.9-2.95h-5a11.91,11.91,0,0,1-8.81-3.49A13.6,13.6,0,0,1,280.29,429.86Zm7.48.06a7.3,7.3,0,0,0,1.93,5.5,4.64,4.64,0,0,0,3.23,1.22h5.19v-5.28q0-1.92-.06-2.61a7.87,7.87,0,0,0-1.87-4.7,4.13,4.13,0,0,0-3.26-1.56,4.34,4.34,0,0,0-3.65,2A9.2,9.2,0,0,0,287.77,429.92Z"/><path class="cls-8" d="M308.38,408.6a3.92,3.92,0,0,1,1.22-2.84,3.82,3.82,0,0,1,2.78-1.16,4.06,4.06,0,0,1,4,4,4.18,4.18,0,0,1-4,4,3.91,3.91,0,0,1-2.78-1.16A4,4,0,0,1,308.38,408.6Zm2.07,34.84v-6.8h4.76c2.88,0,4.31-1.47,4.31-4.4v-12l7.49-2.44v14.57a4.33,4.33,0,0,0,1.22,3.32,4.81,4.81,0,0,0,3.26,1h3.88v6.8H331a11.3,11.3,0,0,1-7.6-2.84,11.59,11.59,0,0,1-7.77,2.84Zm8.37-34.84a3.91,3.91,0,0,1,1.21-2.84,3.85,3.85,0,0,1,2.81-1.16,4.06,4.06,0,0,1,4,4,4.18,4.18,0,0,1-4,4,4,4,0,0,1-2.81-1.16A4,4,0,0,1,318.82,408.6Z"/><path class="cls-8" d="M334,443.44v-6.8h2.58a5.59,5.59,0,0,0,4-1.28,5.11,5.11,0,0,0,1.39-2.89,16.51,16.51,0,0,1,1.39-4.71,11.15,11.15,0,0,1,4.48-4.82,12.47,12.47,0,0,1,6.32-1.56,11.81,11.81,0,0,1,8,2.78,11.22,11.22,0,0,1,3.06,4.37,16.82,16.82,0,0,1,1.05,3.77,4.76,4.76,0,0,0,1.76,3.23,6.07,6.07,0,0,0,3.88,1.11h2.27v6.8h-1.87a11,11,0,0,1-7.14-2.44,11.77,11.77,0,0,1-3.32,4.31,12.16,12.16,0,0,1-18.51-3.8,10.36,10.36,0,0,1-6.44,1.93Zm15.4-8.82c0,2.52.58,4.29,1.75,5.33a4.11,4.11,0,0,0,2.95,1.11c3.22,0,4.82-2.15,4.82-6.44a8.38,8.38,0,0,0-1-4.36,4.09,4.09,0,0,0-3.77-2.21,4,4,0,0,0-3.77,2.21A8.58,8.58,0,0,0,349.35,434.62Z"/><path class="cls-8" d="M372.73,443.44v-6.8h4.82q4.49,0,4.48-4.4V407.8l7.49-2.43v27.21a10.36,10.36,0,0,1-3.23,8.08,12.38,12.38,0,0,1-8.48,2.78Z"/><path class="cls-8" d="M396.32,443.44V407.8l7.54-2.43v38.07Z"/><path class="cls-9" d="M257.61,382.45a24.57,24.57,0,0,1-8.82-3.5,27.56,27.56,0,0,1-7.24-6.75,29.84,29.84,0,0,1-4.7-9.42l-65.21-220.9c-2.57-8.74,1-19.32,7.9-26.15-2.42,1.83-6.65,5.51-8.95,7.53a22.85,22.85,0,0,0-4.61,5.27,24.65,24.65,0,0,0-2.29,19.9l63.91,217.1a29.15,29.15,0,0,0,4.62,9.26,27.11,27.11,0,0,0,7.12,6.63,24.43,24.43,0,0,0,8.69,3.43,22.24,22.24,0,0,0,9.32-.27l9.71-2.4A22.36,22.36,0,0,1,257.61,382.45Z"/><path class="cls-10" d="M272.33,96.18c13.1-2.45,25.54,7.8,29.24,19.88l63.79,208c4.23,13.85-.94,27.6-13.94,31.68l-83,26.05a22.45,22.45,0,0,1-9.8.82,24.56,24.56,0,0,1-9.23-3.3,27.52,27.52,0,0,1-7.61-6.83,29.84,29.84,0,0,1-4.92-9.71l-65.21-220.9c-3.73-12.64,2.83-27.37,16.54-29.94Z"/><path class="cls-11" d="M277.72,121.17a16.12,16.12,0,0,1,6.81.18,19.28,19.28,0,0,1,6.36,2.84,21.74,21.74,0,0,1,5.22,5,22,22,0,0,1,3.41,6.71l57,185.42a22.09,22.09,0,0,1,.95,7.6,20,20,0,0,1-1.63,6.95,17.14,17.14,0,0,1-3.9,5.56,15,15,0,0,1-5.85,3.4l-79.2,24.4a16.48,16.48,0,0,1-7.26.57,18.38,18.38,0,0,1-6.83-2.47,20.61,20.61,0,0,1-5.62-5.07,21.87,21.87,0,0,1-3.64-7.19s-58.14-196.14-58.17-196.22c-2.75-9.32,2.07-20.31,12.2-22.26Z"/><path class="cls-12" d="M225.62,120.89a3.89,3.89,0,1,1-3.89-3.88A3.89,3.89,0,0,1,225.62,120.89Z"/><path class="cls-13" d="M257.63,117l-24,4.55a3.25,3.25,0,0,1-3.79-2.59h0a3.24,3.24,0,0,1,2.58-3.79l24-4.54a3.23,3.23,0,0,1,3.79,2.58h0A3.23,3.23,0,0,1,257.63,117Z"/><path class="cls-14" d="M248.38,227.45,265.62,339s21.27,8.51,44.08,5.1,46.95-11.89,46.95-11.89Z"/><path class="cls-15" d="M390.53,184.6h-.3a3.92,3.92,0,0,1-3.61-4.19c0-.37,2.54-37.15-12.09-53.77a22,22,0,0,0-16.07-7.78c-7.27-.39-13.15,1.67-18,6.3-13.78,13.06-13.95,41.46-13.95,41.75a3.92,3.92,0,0,1-3.91,3.91h0a3.92,3.92,0,0,1-3.91-3.92c0-1.3.2-32.07,16.39-47.41,6.43-6.1,14.44-8.94,23.83-8.44a29.83,29.83,0,0,1,21.52,10.44c16.81,19.09,14.14,57.86,14,59.5A3.91,3.91,0,0,1,390.53,184.6Z"/><polygon class="cls-16" points="413.54 150.62 299.24 143.3 261.22 150.23 384.44 164.56 413.54 150.62"/><path class="cls-17" d="M261.22,150.23l-12.84,77.22L284,316.84s27,18.29,112.31,15.76L384.44,159Z"/><polygon class="cls-18" points="384.44 159.02 413.54 150.62 432.69 321.58 396.34 332.6 384.44 159.02"/><circle class="cls-19" cx="284.28" cy="177.19" r="8.26" transform="translate(63.94 429.51) rotate(-80.81)"/><path class="cls-20" d="M370.72,185.45a8.26,8.26,0,1,1-8.26-8.26A8.26,8.26,0,0,1,370.72,185.45Z"/><path class="cls-21" d="M362.64,190.26a3.91,3.91,0,0,1-3.91-3.89c0-.67-.67-66.52-35.52-67.57h-.77c-31.38,0-34.48,58.22-34.51,58.81a3.91,3.91,0,0,1-7.81-.37,134.91,134.91,0,0,1,6.23-32.73c7.52-22.43,20.35-34,37.1-33.51,17.86.53,31,14,38,39a152.7,152.7,0,0,1,5.14,36.33,3.9,3.9,0,0,1-3.89,3.92Z"/><path class="cls-22" d="M226.35,157.33c-1.43,3.48-2.76,7-4.11,10.78-1.22-.87-2.44-1.77-3.67-2.72-1-.76-2-1.55-3-2.38q-.9-.73-1.8-1.5l-1.21-1c-2.52.65-5,1.36-7.47,2.19,3.26,11.58,5.23,21.51,7.14,30.47a87.85,87.85,0,0,1,7.76-4.65c-1.43-5-2.8-10.28-4.34-15.88,2.91,1.95,5.81,3.67,8.76,5.35.43-.18.86-.35,1.3-.51,1.41-3.41,2.8-6.67,4.23-9.86,1.55,5,3.11,9.83,4.9,14.71,2.46-.78,4.9-1.45,7.34-2.06-3.13-8.43-5.38-16.47-7.75-24.73C231.68,156.16,229,156.76,226.35,157.33Z"/><path class="cls-23" d="M213.32,182.75c-.18,2.62.31,4.4,1.49,5.24l.12.08c1.1.73,2.82.68,5,.05l.1.35a87.85,87.85,0,0,0-7.76,4.65c-1.12-5.26-2.26-10.85-3.67-16.91a55.63,55.63,0,0,1,3.19-7.3,41.39,41.39,0,0,1,3.82-5.9c1,.83,2,1.62,3,2.38A43,43,0,0,0,213.32,182.75Z"/><path class="cls-24" d="M232.78,151.23c-.37.16-.75.34-1.12.52h0a36.52,36.52,0,0,0-10.41,7.74,34.71,34.71,0,0,0-6,8.55,43.36,43.36,0,0,0-2.43,5.81,38.17,38.17,0,0,0-2,9.43c-.23,3.52.37,6.17,2.14,7.38l.16.1c4.13,2.44,13.23-2.17,21.23-7.54l1-.7-.91.8c-9.32,7.61-21.93,15.88-26.84,13.5-2.2-1.22-2.56-4.94-1.79-10a60.83,60.83,0,0,1,6-18,39.3,39.3,0,0,1,4.93-7.24c4.48-5.11,8.94-7.52,14.95-10l.06,0Z"/><g class="cls-25"><path class="cls-26" d="M235.31,182.53l-.91.8c-9.32,7.61-21.93,15.88-26.84,13.5-2.2-1.22-2.56-4.94-1.79-10a57.71,57.71,0,0,1,2.27-9.17v0C201.79,205.43,220.53,193.28,235.31,182.53Z"/></g><path class="cls-27" d="M213.77,161.51a38.72,38.72,0,0,0-3.73,6,55.14,55.14,0,0,0-2.33,5.18c-.78-3.19-1.64-6.52-2.62-10,2.47-.83,4.95-1.54,7.47-2.19Z"/><path class="cls-28" d="M243.43,145.94c-.21.88-.4,1.76-.6,2.63l1.23-.76c.11.14.22.29.34.43l-1.73,1.1c-.2.93-.38,1.86-.56,2.8l1.15-.74.34.44L242,152.9c-.29,1.61-.56,3.21-.81,4.81l-.94.63c-.41-3.29-.77-6.56-1.11-9.84-2,1.14-3.92,2.13-5.31,2.85-.15,1.13-.29,2.25-.42,3.38l-1.11.68c-.2-1.23-.4-2.47-.61-3.71-1.24-.63-2.5-1.31-3.78-2l1.14-.62c1.31.4,2.61.76,3.91,1.09,1.29-.86,3.05-2,5-3.17a113,113,0,0,1-10.79-5.46l1-.46c2,.67,3.92,1.24,5.85,1.73l1.74-.89.39.48c-.4.22-.81.43-1.22.64,1.12.26,2.23.51,3.34.72l1.79-1c.12.15.25.3.37.46l-1.26.7c1,.19,2.06.36,3.08.51,1.33-.77,2.61-1.49,3.68-2,1.52-.77,2.61-1.2,2.82-.9h0v0h0C249.13,142,246.56,144,243.43,145.94Z"/><path class="cls-29" d="M227.11,141.52A85,85,0,0,0,240,145.64L237.9,147A113,113,0,0,1,227.11,141.52Z"/><path class="cls-30" d="M240.21,158.34q.36-5.64,1.06-11.24l-2.17,1.41C239.44,151.78,239.8,155.05,240.21,158.34Z"/><path class="cls-31" d="M227.87,149.68c1.68.2,3.37.36,5,.47-1.3-.33-2.6-.69-3.92-1.09Z"/><path class="cls-32" d="M232.26,155.41c.49-1.36,1-2.71,1.53-4.06-.15,1.13-.29,2.25-.42,3.38Z"/><path class="cls-33" d="M243.43,145.94c5.71-4,2.5-3.57,2.45-3.54h0c1.52-.77,2.61-1.2,2.82-.9h0v0h0C249.13,142,246.56,144,243.43,145.94Z"/><g class="cls-34"><rect class="cls-35" x="237.2" y="238.95" width="60.59" height="62.53"/></g><g class="cls-36"><rect class="cls-37" x="250.63" y="248.39" width="37.34" height="37.54"/></g><g class="cls-38"><path class="cls-39" d="M278.43,277.86,288,248.39l-14.88,5a24.6,24.6,0,0,0,5.35,24.51"/></g><g class="cls-40"><path class="cls-39" d="M282,266.92l6-18.53-13.11,4.37A18.07,18.07,0,0,0,282,266.92"/></g><g class="cls-41"><path class="cls-42" d="M257.81,267a4.69,4.69,0,0,1,.18,4.07l-7.56,7.51-2.11,2.09,5.63,5.84,2.31-.77-.78-.81-4.85-5,9.67-9.6a4.69,4.69,0,0,0-.18-4.07l-7.4-4.28-2-1.16-2.31.77,4,2.34Zm12.44,9.77a4,4,0,0,0-5-.24,4.08,4.08,0,0,1,2.71,1l4.63,7.61.94,1.55,2.32-.77-1.35-2.21Z"/></g><g class="cls-43"><path class="cls-44" d="M296.64,245.08l-13,40.07h3.68l11.65-36a4.53,4.53,0,0,0-.17-1.78v0h0l-1.68-5.46a4.56,4.56,0,0,1,.07,1.41Z"/></g></g></g></svg>
